<svg xmlns="http://www.w3.org/2000/svg" xmlns:xlink="http://www.w3.org/1999/xlink" width="2380" zoomAndPan="magnify" viewBox="0 0 1784.88 1784.99993" height="2380" preserveAspectRatio="xMidYMid meet" version="1.0"><defs><clipPath id="d4ccbeda95"><path d="M 743 1303 L 1042 1303 L 1042 1427.941406 L 743 1427.941406 Z M 743 1303 " clip-rule="nonzero"/></clipPath><clipPath id="5dd1620005"><path d="M 381.714844 743 L 507 743 L 507 1042 L 381.714844 1042 Z M 381.714844 743 " clip-rule="nonzero"/></clipPath><clipPath id="2345985350"><path d="M 743 357.011719 L 1042 357.011719 L 1042 482 L 743 482 Z M 743 357.011719 " clip-rule="nonzero"/></clipPath><clipPath id="b7f8ef843f"><path d="M 1278 743 L 1403.148438 743 L 1403.148438 1042 L 1278 1042 Z M 1278 743 " clip-rule="nonzero"/></clipPath></defs><path fill="#63b755" d="M 1340.890625 892.476562 C 1340.890625 899.816406 1340.710938 907.152344 1340.347656 914.480469 C 1339.988281 921.8125 1339.449219 929.128906 1338.730469 936.433594 C 1338.011719 943.738281 1337.113281 951.019531 1336.035156 958.28125 C 1334.957031 965.539062 1333.703125 972.769531 1332.273438 979.96875 C 1330.839844 987.167969 1329.234375 994.324219 1327.449219 1001.445312 C 1325.664062 1008.566406 1323.707031 1015.636719 1321.578125 1022.660156 C 1319.449219 1029.683594 1317.144531 1036.652344 1314.671875 1043.5625 C 1312.199219 1050.472656 1309.558594 1057.316406 1306.75 1064.097656 C 1303.941406 1070.878906 1300.96875 1077.585938 1297.832031 1084.222656 C 1294.691406 1090.855469 1291.394531 1097.410156 1287.933594 1103.882812 C 1284.472656 1110.355469 1280.855469 1116.742188 1277.082031 1123.035156 C 1273.308594 1129.332031 1269.382812 1135.53125 1265.308594 1141.632812 C 1261.230469 1147.734375 1257.003906 1153.734375 1252.632812 1159.628906 C 1248.257812 1165.523438 1243.746094 1171.308594 1239.089844 1176.984375 C 1234.433594 1182.65625 1229.640625 1188.210938 1224.710938 1193.648438 C 1219.78125 1199.089844 1214.722656 1204.402344 1209.53125 1209.59375 C 1204.34375 1214.78125 1199.027344 1219.839844 1193.589844 1224.769531 C 1188.152344 1229.699219 1182.59375 1234.492188 1176.921875 1239.148438 C 1171.246094 1243.804688 1165.464844 1248.320312 1159.566406 1252.691406 C 1153.671875 1257.0625 1147.671875 1261.289062 1141.570312 1265.367188 C 1135.46875 1269.441406 1129.269531 1273.367188 1122.972656 1277.140625 C 1116.679688 1280.914062 1110.292969 1284.53125 1103.820312 1287.992188 C 1097.347656 1291.453125 1090.792969 1294.75 1084.15625 1297.886719 C 1077.523438 1301.027344 1070.816406 1304 1064.035156 1306.808594 C 1057.253906 1309.617188 1050.40625 1312.257812 1043.496094 1314.730469 C 1036.585938 1317.203125 1029.617188 1319.503906 1022.59375 1321.636719 C 1015.570312 1323.765625 1008.5 1325.722656 1001.378906 1327.507812 C 994.261719 1329.289062 987.101562 1330.898438 979.902344 1332.328125 C 972.703125 1333.761719 965.472656 1335.015625 958.214844 1336.09375 C 950.953125 1337.167969 943.671875 1338.066406 936.367188 1338.785156 C 929.0625 1339.507812 921.746094 1340.046875 914.414062 1340.40625 C 907.082031 1340.765625 899.746094 1340.945312 892.40625 1340.945312 C 885.066406 1340.945312 877.730469 1340.765625 870.402344 1340.40625 C 863.070312 1340.046875 855.753906 1339.507812 848.449219 1338.785156 C 841.144531 1338.066406 833.863281 1337.167969 826.601562 1336.09375 C 819.339844 1335.015625 812.113281 1333.761719 804.914062 1332.328125 C 797.714844 1330.898438 790.554688 1329.289062 783.433594 1327.507812 C 776.316406 1325.722656 769.242188 1323.765625 762.21875 1321.636719 C 755.195312 1319.503906 748.230469 1317.203125 741.316406 1314.730469 C 734.40625 1312.257812 727.5625 1309.617188 720.78125 1306.808594 C 714 1304 707.292969 1301.027344 700.65625 1297.886719 C 694.019531 1294.75 687.46875 1291.453125 680.996094 1287.992188 C 674.519531 1284.53125 668.136719 1280.914062 661.839844 1277.140625 C 655.546875 1273.367188 649.347656 1269.441406 643.242188 1265.367188 C 637.140625 1261.289062 631.140625 1257.0625 625.246094 1252.691406 C 619.351562 1248.320312 613.566406 1243.804688 607.894531 1239.148438 C 602.21875 1234.492188 596.664062 1229.699219 591.226562 1224.769531 C 585.785156 1219.839844 580.472656 1214.78125 575.28125 1209.59375 C 570.09375 1204.402344 565.03125 1199.089844 560.105469 1193.648438 C 555.175781 1188.210938 550.382812 1182.65625 545.726562 1176.984375 C 541.070312 1171.308594 536.554688 1165.523438 532.183594 1159.628906 C 527.8125 1153.734375 523.585938 1147.734375 519.507812 1141.632812 C 515.429688 1135.53125 511.503906 1129.332031 507.730469 1123.035156 C 503.957031 1116.742188 500.339844 1110.355469 496.882812 1103.882812 C 493.421875 1097.410156 490.121094 1090.855469 486.984375 1084.222656 C 483.847656 1077.585938 480.871094 1070.878906 478.0625 1064.097656 C 475.253906 1057.316406 472.613281 1050.472656 470.140625 1043.5625 C 467.667969 1036.652344 465.367188 1029.683594 463.238281 1022.660156 C 461.105469 1015.636719 459.148438 1008.566406 457.367188 1001.445312 C 455.582031 994.324219 453.972656 987.167969 452.542969 979.96875 C 451.109375 972.769531 449.855469 965.539062 448.777344 958.28125 C 447.703125 951.019531 446.804688 943.738281 446.085938 936.433594 C 445.363281 929.128906 444.824219 921.8125 444.464844 914.480469 C 444.105469 907.152344 443.925781 899.816406 443.925781 892.476562 C 443.925781 885.136719 444.105469 877.800781 444.464844 870.46875 C 444.824219 863.140625 445.363281 855.824219 446.085938 848.519531 C 446.804688 841.214844 447.703125 833.933594 448.777344 826.671875 C 449.855469 819.410156 451.109375 812.183594 452.542969 804.984375 C 453.972656 797.785156 455.582031 790.625 457.367188 783.507812 C 459.148438 776.386719 461.105469 769.316406 463.238281 762.292969 C 465.367188 755.269531 467.667969 748.300781 470.140625 741.390625 C 472.613281 734.480469 475.253906 727.632812 478.0625 720.855469 C 480.871094 714.074219 483.847656 707.363281 486.984375 700.730469 C 490.121094 694.09375 493.421875 687.542969 496.882812 681.070312 C 500.339844 674.59375 503.957031 668.210938 507.730469 661.917969 C 511.503906 655.621094 515.429688 649.421875 519.507812 643.320312 C 523.585938 637.214844 527.8125 631.21875 532.183594 625.324219 C 536.554688 619.425781 541.070312 613.644531 545.726562 607.96875 C 550.382812 602.296875 555.175781 596.738281 560.105469 591.300781 C 565.03125 585.863281 570.09375 580.550781 575.28125 575.359375 C 580.472656 570.167969 585.785156 565.109375 591.226562 560.179688 C 596.664062 555.253906 602.21875 550.460938 607.894531 545.804688 C 613.566406 541.148438 619.351562 536.632812 625.246094 532.261719 C 631.140625 527.890625 637.140625 523.664062 643.242188 519.585938 C 649.347656 515.507812 655.546875 511.582031 661.839844 507.808594 C 668.136719 504.035156 674.519531 500.421875 680.996094 496.960938 C 687.46875 493.5 694.019531 490.203125 700.65625 487.0625 C 707.292969 483.925781 714 480.953125 720.78125 478.144531 C 727.5625 475.335938 734.40625 472.695312 741.316406 470.222656 C 748.230469 467.75 755.195312 465.445312 762.21875 463.316406 C 769.242188 461.1875 776.316406 459.230469 783.433594 457.445312 C 790.554688 455.664062 797.714844 454.054688 804.914062 452.621094 C 812.113281 451.191406 819.339844 449.9375 826.601562 448.859375 C 833.863281 447.78125 841.144531 446.882812 848.449219 446.164062 C 855.753906 445.445312 863.070312 444.90625 870.402344 444.546875 C 877.730469 444.1875 885.066406 444.003906 892.40625 444.003906 C 899.746094 444.003906 907.082031 444.1875 914.414062 444.546875 C 921.746094 444.90625 929.0625 445.445312 936.367188 446.164062 C 943.671875 446.882812 950.953125 447.78125 958.214844 448.859375 C 965.472656 449.9375 972.703125 451.191406 979.902344 452.621094 C 987.101562 454.054688 994.261719 455.664062 1001.378906 457.445312 C 1008.5 459.230469 1015.570312 461.1875 1022.59375 463.316406 C 1029.617188 465.445312 1036.585938 467.75 1043.496094 470.222656 C 1050.40625 472.695312 1057.253906 475.335938 1064.035156 478.144531 C 1070.816406 480.953125 1077.523438 483.925781 1084.15625 487.0625 C 1090.792969 490.203125 1097.347656 493.5 1103.820312 496.960938 C 1110.292969 500.421875 1116.679688 504.035156 1122.972656 507.808594 C 1129.269531 511.582031 1135.46875 515.507812 1141.570312 519.585938 C 1147.671875 523.664062 1153.671875 527.890625 1159.566406 532.261719 C 1165.464844 536.632812 1171.246094 541.148438 1176.921875 545.804688 C 1182.59375 550.460938 1188.152344 555.253906 1193.589844 560.179688 C 1199.027344 565.109375 1204.34375 570.167969 1209.53125 575.359375 C 1214.722656 580.550781 1219.78125 585.863281 1224.710938 591.300781 C 1229.640625 596.738281 1234.433594 602.296875 1239.089844 607.96875 C 1243.746094 613.644531 1248.257812 619.425781 1252.632812 625.324219 C 1257.003906 631.21875 1261.230469 637.214844 1265.308594 643.320312 C 1269.382812 649.421875 1273.308594 655.621094 1277.082031 661.917969 C 1280.855469 668.210938 1284.472656 674.59375 1287.933594 681.070312 C 1291.394531 687.542969 1294.691406 694.09375 1297.832031 700.730469 C 1300.96875 707.363281 1303.941406 714.074219 1306.75 720.855469 C 1309.558594 727.632812 1312.199219 734.480469 1314.671875 741.390625 C 1317.144531 748.300781 1319.449219 755.269531 1321.578125 762.292969 C 1323.707031 769.316406 1325.664062 776.386719 1327.449219 783.507812 C 1329.234375 790.625 1330.839844 797.785156 1332.273438 804.984375 C 1333.703125 812.183594 1334.957031 819.410156 1336.035156 826.671875 C 1337.113281 833.933594 1338.011719 841.214844 1338.730469 848.519531 C 1339.449219 855.824219 1339.988281 863.140625 1340.347656 870.46875 C 1340.710938 877.800781 1340.890625 885.136719 1340.890625 892.476562 Z M 1340.890625 892.476562 " fill-opacity="1" fill-rule="nonzero"/><g clip-path="url(#d4ccbeda95)"><path fill="#2b2b2b" d="M 743.496094 1303.351562 L 1041.328125 1303.351562 L 1041.328125 1427.773438 L 743.496094 1427.773438 Z M 743.496094 1303.351562 " fill-opacity="1" fill-rule="nonzero"/></g><g clip-path="url(#5dd1620005)"><path fill="#2b2b2b" d="M 381.714844 1041.386719 L 381.714844 743.558594 L 506.140625 743.558594 L 506.140625 1041.386719 Z M 381.714844 1041.386719 " fill-opacity="1" fill-rule="nonzero"/></g><path fill="#2b2b2b" d="M 653.1875 1259.125 L 785.105469 1259.125 L 785.105469 1357.582031 L 653.1875 1357.582031 Z M 653.1875 1259.125 " fill-opacity="1" fill-rule="nonzero"/><path fill="#2b2b2b" d="M 452.757812 1149.5 L 452.757812 1017.582031 L 551.21875 1017.582031 L 551.21875 1149.5 Z M 452.757812 1149.5 " fill-opacity="1" fill-rule="nonzero"/><path fill="#2b2b2b" d="M 587.183594 1195.902344 L 692.597656 1195.902344 L 692.597656 1294.359375 L 587.183594 1294.359375 Z M 587.183594 1195.902344 " fill-opacity="1" fill-rule="nonzero"/><path fill="#2b2b2b" d="M 506.140625 1133.863281 L 611.558594 1133.863281 L 611.558594 1232.316406 L 506.140625 1232.316406 Z M 506.140625 1133.863281 " fill-opacity="1" fill-rule="nonzero"/><g clip-path="url(#2345985350)"><path fill="#2b2b2b" d="M 743.496094 357.175781 L 1041.328125 357.175781 L 1041.328125 481.601562 L 743.496094 481.601562 Z M 743.496094 357.175781 " fill-opacity="1" fill-rule="nonzero"/></g><path fill="#2b2b2b" d="M 653.1875 427.363281 L 785.105469 427.363281 L 785.105469 525.820312 L 653.1875 525.820312 Z M 653.1875 427.363281 " fill-opacity="1" fill-rule="nonzero"/><path fill="#2b2b2b" d="M 551.21875 635.445312 L 551.21875 767.363281 L 452.757812 767.363281 L 452.757812 635.445312 Z M 551.21875 635.445312 " fill-opacity="1" fill-rule="nonzero"/><path fill="#2b2b2b" d="M 587.183594 490.585938 L 692.597656 490.585938 L 692.597656 589.042969 L 587.183594 589.042969 Z M 587.183594 490.585938 " fill-opacity="1" fill-rule="nonzero"/><path fill="#2b2b2b" d="M 506.140625 552.625 L 611.558594 552.625 L 611.558594 651.082031 L 506.140625 651.082031 Z M 506.140625 552.625 " fill-opacity="1" fill-rule="nonzero"/><path fill="#eaeaea" d="M 1144.167969 842.015625 L 1038.753906 842.015625 L 1038.753906 743.558594 L 1144.167969 743.558594 Z M 1144.167969 842.015625 " fill-opacity="1" fill-rule="nonzero"/><path fill="#eaeaea" d="M 1070.617188 915.566406 L 965.199219 915.566406 L 965.199219 817.109375 L 1070.617188 817.109375 Z M 1070.617188 915.566406 " fill-opacity="1" fill-rule="nonzero"/><path fill="#eaeaea" d="M 997.070312 989.117188 L 891.65625 989.117188 L 891.65625 890.660156 L 997.070312 890.660156 Z M 997.070312 989.117188 " fill-opacity="1" fill-rule="nonzero"/><path fill="#eaeaea" d="M 820.875 989.117188 L 715.460938 989.117188 L 715.460938 890.660156 L 820.875 890.660156 Z M 820.875 989.117188 " fill-opacity="1" fill-rule="nonzero"/><path fill="#eaeaea" d="M 746.070312 914.308594 L 640.652344 914.308594 L 640.652344 815.851562 L 746.070312 815.851562 Z M 746.070312 914.308594 " fill-opacity="1" fill-rule="nonzero"/><path fill="#eaeaea" d="M 921.671875 1064.515625 L 787.753906 1064.515625 L 787.753906 966.058594 L 921.671875 966.058594 Z M 921.671875 1064.515625 " fill-opacity="1" fill-rule="nonzero"/><g clip-path="url(#b7f8ef843f)"><path fill="#2b2b2b" d="M 1278.679688 1041.386719 L 1278.679688 743.558594 L 1403.105469 743.558594 L 1403.105469 1041.386719 Z M 1278.679688 1041.386719 " fill-opacity="1" fill-rule="nonzero"/></g><path fill="#2b2b2b" d="M 1131.636719 1357.582031 L 999.714844 1357.582031 L 999.714844 1259.125 L 1131.636719 1259.125 Z M 1131.636719 1357.582031 " fill-opacity="1" fill-rule="nonzero"/><path fill="#2b2b2b" d="M 1233.605469 1149.492188 L 1233.605469 1017.574219 L 1332.066406 1017.574219 L 1332.066406 1149.492188 Z M 1233.605469 1149.492188 " fill-opacity="1" fill-rule="nonzero"/><path fill="#2b2b2b" d="M 1197.640625 1294.359375 L 1092.226562 1294.359375 L 1092.226562 1195.902344 L 1197.640625 1195.902344 Z M 1197.640625 1294.359375 " fill-opacity="1" fill-rule="nonzero"/><path fill="#2b2b2b" d="M 1278.679688 1232.316406 L 1173.265625 1232.316406 L 1173.265625 1133.859375 L 1278.679688 1133.859375 Z M 1278.679688 1232.316406 " fill-opacity="1" fill-rule="nonzero"/><path fill="#2b2b2b" d="M 1131.636719 525.820312 L 999.714844 525.820312 L 999.714844 427.363281 L 1131.636719 427.363281 Z M 1131.636719 525.820312 " fill-opacity="1" fill-rule="nonzero"/><path fill="#2b2b2b" d="M 1332.058594 635.453125 L 1332.058594 767.371094 L 1233.597656 767.371094 L 1233.597656 635.453125 Z M 1332.058594 635.453125 " fill-opacity="1" fill-rule="nonzero"/><path fill="#2b2b2b" d="M 1197.640625 589.042969 L 1092.226562 589.042969 L 1092.226562 490.585938 L 1197.640625 490.585938 Z M 1197.640625 589.042969 " fill-opacity="1" fill-rule="nonzero"/><path fill="#2b2b2b" d="M 1278.679688 651.089844 L 1173.265625 651.089844 L 1173.265625 552.632812 L 1278.679688 552.632812 Z M 1278.679688 651.089844 " fill-opacity="1" fill-rule="nonzero"/></svg>