<svg xmlns="http://www.w3.org/2000/svg" xmlns:xlink="http://www.w3.org/1999/xlink" width="2380" zoomAndPan="magnify" viewBox="0 0 1784.88 1784.99993" height="2380" preserveAspectRatio="xMidYMid meet" version="1.0"><defs><clipPath id="d199f18c45"><path d="M 317.582031 296 L 1467.253906 296 L 1467.253906 1489 L 317.582031 1489 Z M 317.582031 296 " clip-rule="nonzero"/></clipPath><clipPath id="2f6329fca6"><path d="M 317.582031 296 L 1467.253906 296 L 1467.253906 1489 L 317.582031 1489 Z M 317.582031 296 " clip-rule="nonzero"/></clipPath></defs><g clip-path="url(#d199f18c45)"><path fill="#d2d2d1" d="M 1467.089844 466.765625 L 1467.089844 637.058594 L 1424.511719 637.058594 L 1424.511719 679.640625 L 1296.769531 679.640625 L 1296.769531 722.195312 L 1254.214844 722.195312 L 1254.214844 764.773438 L 1211.636719 764.773438 L 1211.636719 849.933594 L 1169.054688 849.933594 L 1169.054688 892.488281 L 1126.476562 892.488281 L 1126.476562 1020.230469 L 1169.054688 1020.230469 L 1169.054688 1190.523438 L 1126.476562 1190.523438 L 1126.476562 1275.660156 L 1083.921875 1275.660156 L 1083.921875 1318.238281 L 998.761719 1318.238281 L 998.761719 1275.660156 L 956.179688 1275.660156 L 956.179688 1233.105469 L 913.597656 1233.105469 L 913.597656 1190.523438 L 871.046875 1190.523438 L 871.046875 1147.945312 L 828.464844 1147.945312 L 828.464844 1105.363281 L 785.886719 1105.363281 L 785.886719 1147.945312 L 743.304688 1147.945312 L 743.304688 1190.523438 L 700.75 1190.523438 L 700.75 1233.105469 L 658.171875 1233.105469 L 658.171875 1275.660156 L 615.589844 1275.660156 L 615.589844 1318.238281 L 573.007812 1318.238281 L 573.007812 1360.820312 L 530.429688 1360.820312 L 530.429688 1403.398438 L 487.875 1403.398438 L 487.875 1445.980469 L 402.714844 1445.980469 L 402.714844 1488.535156 L 317.582031 1488.535156 L 317.582031 1445.980469 L 360.132812 1445.980469 L 360.132812 1360.820312 L 402.714844 1360.820312 L 402.714844 1275.660156 L 445.296875 1275.660156 L 445.296875 1233.105469 L 530.429688 1233.105469 L 530.429688 1147.945312 L 573.007812 1147.945312 L 573.007812 1105.363281 L 615.589844 1105.363281 L 615.589844 1062.808594 L 658.171875 1062.808594 L 658.171875 1020.230469 L 700.75 1020.230469 L 700.75 977.648438 L 658.171875 977.648438 L 658.171875 935.070312 L 615.589844 935.070312 L 615.589844 892.488281 L 573.007812 892.488281 L 573.007812 849.933594 L 530.429688 849.933594 L 530.429688 807.355469 L 487.875 807.355469 L 487.875 764.773438 L 530.429688 764.773438 L 530.429688 679.640625 L 615.589844 679.640625 L 615.589844 637.058594 L 785.886719 637.058594 L 785.886719 679.640625 L 871.046875 679.640625 L 871.046875 594.480469 L 956.179688 594.480469 L 956.179688 551.898438 L 998.761719 551.898438 L 998.761719 509.320312 L 1041.339844 509.320312 L 1041.339844 466.765625 L 1083.921875 466.765625 L 1083.921875 339.023438 L 1126.476562 339.023438 L 1126.476562 296.46875 L 1296.769531 296.46875 L 1296.769531 339.023438 L 1339.351562 339.023438 L 1339.351562 381.605469 L 1381.929688 381.605469 L 1381.929688 424.183594 L 1424.511719 424.183594 L 1424.511719 466.765625 Z M 1467.089844 466.765625 " fill-opacity="1" fill-rule="nonzero"/></g><path fill="#d2d2d1" d="M 1381.929688 509.320312 L 1424.511719 509.320312 L 1424.511719 594.480469 L 1381.929688 594.480469 L 1381.929688 637.058594 L 1296.769531 637.058594 L 1296.769531 594.480469 L 1254.214844 594.480469 L 1254.214844 551.898438 L 1211.636719 551.898438 L 1211.636719 509.320312 L 1169.054688 509.320312 L 1169.054688 466.765625 L 1126.476562 466.765625 L 1126.476562 381.605469 L 1169.054688 381.605469 L 1169.054688 424.183594 L 1211.636719 424.183594 L 1211.636719 381.605469 L 1169.054688 381.605469 L 1169.054688 339.023438 L 1254.214844 339.023438 L 1254.214844 381.605469 L 1296.769531 381.605469 L 1296.769531 424.183594 L 1339.351562 424.183594 L 1339.351562 466.765625 L 1381.929688 466.765625 Z M 1211.636719 679.640625 L 1254.214844 679.640625 L 1254.214844 637.058594 L 1211.636719 637.058594 L 1211.636719 594.480469 L 1169.054688 594.480469 L 1169.054688 551.898438 L 1126.476562 551.898438 L 1126.476562 594.480469 L 1083.921875 594.480469 L 1083.921875 637.058594 L 1041.339844 637.058594 L 1041.339844 679.640625 L 998.761719 679.640625 L 998.761719 594.480469 L 956.179688 594.480469 L 956.179688 637.058594 L 913.597656 637.058594 L 913.597656 679.640625 L 871.046875 679.640625 L 871.046875 722.195312 L 913.597656 722.195312 L 913.597656 764.773438 L 956.179688 764.773438 L 956.179688 807.355469 L 998.761719 807.355469 L 998.761719 849.933594 L 1041.339844 849.933594 L 1041.339844 892.488281 L 1126.476562 892.488281 L 1126.476562 807.355469 L 1169.054688 807.355469 L 1169.054688 764.773438 L 1211.636719 764.773438 Z M 1126.476562 509.320312 L 1083.921875 509.320312 L 1083.921875 551.898438 L 1126.476562 551.898438 Z M 1083.921875 977.648438 L 1041.339844 977.648438 L 1041.339844 935.070312 L 998.761719 935.070312 L 998.761719 892.488281 L 956.179688 892.488281 L 956.179688 849.933594 L 913.597656 849.933594 L 913.597656 807.355469 L 871.046875 807.355469 L 871.046875 764.773438 L 828.464844 764.773438 L 828.464844 722.195312 L 785.886719 722.195312 L 785.886719 764.773438 L 700.75 764.773438 L 700.75 807.355469 L 658.171875 807.355469 L 658.171875 764.773438 L 700.75 764.773438 L 700.75 722.195312 L 785.886719 722.195312 L 785.886719 679.640625 L 658.171875 679.640625 L 658.171875 722.195312 L 573.007812 722.195312 L 573.007812 807.355469 L 615.589844 807.355469 L 615.589844 849.933594 L 658.171875 849.933594 L 658.171875 892.488281 L 700.75 892.488281 L 700.75 935.070312 L 743.304688 935.070312 L 743.304688 977.648438 L 785.886719 977.648438 L 785.886719 1020.230469 L 828.464844 1020.230469 L 828.464844 1062.808594 L 871.046875 1062.808594 L 871.046875 1105.363281 L 913.601562 1105.363281 L 913.601562 1147.945312 L 956.179688 1147.945312 L 956.179688 1190.523438 L 998.761719 1190.523438 L 998.761719 1233.105469 L 1083.921875 1233.105469 L 1083.921875 1147.945312 L 1126.476562 1147.945312 L 1126.476562 1020.230469 L 1083.921875 1020.230469 Z M 1041.339844 594.480469 L 1041.339844 551.898438 L 998.761719 551.898438 L 998.761719 594.480469 Z M 1041.339844 594.480469 " fill-opacity="1" fill-rule="nonzero"/><path fill="#f7f7f0" d="M 1169.054688 424.183594 L 1169.054688 381.605469 L 1211.636719 381.605469 L 1211.636719 424.183594 Z M 998.761719 594.480469 L 998.761719 679.640625 L 1041.339844 679.640625 L 1041.339844 637.058594 L 1083.921875 637.058594 L 1083.921875 594.480469 L 1126.476562 594.480469 L 1126.476562 551.898438 L 1041.339844 551.898438 L 1041.339844 594.480469 Z M 743.304688 1062.808594 L 700.75 1062.808594 L 700.75 1105.363281 L 743.304688 1105.363281 Z M 700.75 722.195312 L 700.75 764.773438 L 785.886719 764.773438 L 785.886719 722.195312 Z M 700.75 1105.363281 L 658.171875 1105.363281 L 658.171875 1147.945312 L 700.75 1147.945312 Z M 658.171875 807.355469 L 700.75 807.355469 L 700.75 764.773438 L 658.171875 764.773438 Z M 658.171875 1147.945312 L 615.589844 1147.945312 L 615.589844 1190.523438 L 658.171875 1190.523438 Z M 615.589844 1190.523438 L 573.007812 1190.523438 L 573.007812 1233.105469 L 615.589844 1233.105469 Z M 573.007812 1275.660156 L 573.007812 1233.105469 L 530.429688 1233.105469 L 530.429688 1275.660156 Z M 487.875 1318.238281 L 530.429688 1318.238281 L 530.429688 1275.660156 L 487.875 1275.660156 Z M 445.296875 1360.820312 L 487.875 1360.820312 L 487.875 1318.238281 L 445.296875 1318.238281 Z M 445.296875 1360.820312 " fill-opacity="1" fill-rule="nonzero"/><g clip-path="url(#2f6329fca6)"><path fill="#2b2b2b" d="M 1424.511719 466.765625 L 1424.511719 424.183594 L 1381.929688 424.183594 L 1381.929688 381.605469 L 1339.351562 381.605469 L 1339.351562 339.023438 L 1296.769531 339.023438 L 1296.769531 296.46875 L 1126.476562 296.46875 L 1126.476562 339.023438 L 1083.921875 339.023438 L 1083.921875 466.765625 L 1041.339844 466.765625 L 1041.339844 509.320312 L 998.761719 509.320312 L 998.761719 551.898438 L 1083.921875 551.898438 L 1083.921875 509.320312 L 1126.476562 509.320312 L 1126.476562 551.898438 L 1169.054688 551.898438 L 1169.054688 594.480469 L 1211.636719 594.480469 L 1211.636719 637.058594 L 1254.214844 637.058594 L 1254.214844 679.640625 L 1211.636719 679.640625 L 1211.636719 764.773438 L 1254.214844 764.773438 L 1254.214844 722.195312 L 1296.769531 722.195312 L 1296.769531 679.640625 L 1424.511719 679.640625 L 1424.511719 637.058594 L 1467.089844 637.058594 L 1467.089844 466.765625 Z M 1424.511719 551.898438 L 1424.511719 594.480469 L 1381.929688 594.480469 L 1381.929688 637.058594 L 1296.769531 637.058594 L 1296.769531 594.480469 L 1254.214844 594.480469 L 1254.214844 551.898438 L 1211.636719 551.898438 L 1211.636719 509.320312 L 1169.054688 509.320312 L 1169.054688 466.765625 L 1126.476562 466.765625 L 1126.476562 381.605469 L 1169.054688 381.605469 L 1169.054688 339.023438 L 1254.214844 339.023438 L 1254.214844 381.605469 L 1296.769531 381.605469 L 1296.769531 424.183594 L 1339.351562 424.183594 L 1339.351562 466.765625 L 1381.929688 466.765625 L 1381.929688 509.320312 L 1424.511719 509.320312 Z M 1169.054688 764.773438 L 1211.636719 764.773438 L 1211.636719 849.933594 L 1169.054688 849.933594 L 1169.054688 892.488281 L 1126.476562 892.488281 L 1126.476562 807.355469 L 1169.054688 807.355469 Z M 1126.476562 1062.808594 L 1126.476562 1020.230469 L 1169.054688 1020.230469 L 1169.054688 1190.523438 L 1126.476562 1190.523438 L 1126.476562 1275.660156 L 1083.921875 1275.660156 L 1083.921875 1318.238281 L 998.761719 1318.238281 L 998.761719 1275.660156 L 956.179688 1275.660156 L 956.179688 1233.105469 L 913.597656 1233.105469 L 913.597656 1190.523438 L 871.046875 1190.523438 L 871.046875 1147.945312 L 828.464844 1147.945312 L 828.464844 1105.363281 L 785.886719 1105.363281 L 785.886719 1147.945312 L 743.304688 1147.945312 L 743.304688 1190.523438 L 700.75 1190.523438 L 700.75 1233.105469 L 658.171875 1233.105469 L 658.171875 1275.660156 L 615.589844 1275.660156 L 615.589844 1318.238281 L 573.007812 1318.238281 L 573.007812 1360.820312 L 530.429688 1360.820312 L 530.429688 1403.398438 L 487.875 1403.398438 L 487.875 1445.980469 L 402.714844 1445.980469 L 402.714844 1488.535156 L 317.582031 1488.535156 L 317.582031 1445.980469 L 360.132812 1445.980469 L 360.132812 1360.820312 L 402.714844 1360.820312 L 402.714844 1275.660156 L 445.296875 1275.660156 L 445.296875 1233.105469 L 530.429688 1233.105469 L 530.429688 1275.660156 L 487.875 1275.660156 L 487.875 1318.238281 L 445.296875 1318.238281 L 445.296875 1360.820312 L 487.875 1360.820312 L 487.875 1318.238281 L 530.429688 1318.238281 L 530.429688 1275.660156 L 573.007812 1275.660156 L 573.007812 1233.105469 L 615.589844 1233.105469 L 615.589844 1190.523438 L 658.171875 1190.523438 L 658.171875 1147.945312 L 700.75 1147.945312 L 700.75 1105.363281 L 743.304688 1105.363281 L 743.304688 1062.808594 L 700.75 1062.808594 L 700.75 1105.363281 L 658.171875 1105.363281 L 658.171875 1147.945312 L 615.589844 1147.945312 L 615.589844 1190.523438 L 573.007812 1190.523438 L 573.007812 1233.105469 L 530.429688 1233.105469 L 530.429688 1147.945312 L 573.007812 1147.945312 L 573.007812 1105.363281 L 615.589844 1105.363281 L 615.589844 1062.808594 L 658.171875 1062.808594 L 658.171875 1020.230469 L 700.75 1020.230469 L 700.75 977.648438 L 658.171875 977.648438 L 658.171875 935.070312 L 615.589844 935.070312 L 615.589844 892.488281 L 573.007812 892.488281 L 573.007812 849.933594 L 530.429688 849.933594 L 530.429688 807.355469 L 487.875 807.355469 L 487.875 764.773438 L 530.429688 764.773438 L 530.429688 679.640625 L 615.589844 679.640625 L 615.589844 637.058594 L 785.886719 637.058594 L 785.886719 679.640625 L 658.171875 679.640625 L 658.171875 722.195312 L 573.007812 722.195312 L 573.007812 807.355469 L 615.589844 807.355469 L 615.589844 849.933594 L 658.171875 849.933594 L 658.171875 892.488281 L 700.75 892.488281 L 700.75 935.070312 L 743.304688 935.070312 L 743.304688 977.648438 L 785.886719 977.648438 L 785.886719 1020.230469 L 828.464844 1020.230469 L 828.464844 1062.808594 L 871.046875 1062.808594 L 871.046875 1105.363281 L 913.601562 1105.363281 L 913.601562 1147.945312 L 956.179688 1147.945312 L 956.179688 1190.523438 L 998.761719 1190.523438 L 998.761719 1233.105469 L 1083.921875 1233.105469 L 1083.921875 1147.945312 L 1126.476562 1147.945312 Z M 1083.921875 892.488281 L 1126.476562 892.488281 L 1126.476562 1020.230469 L 1083.921875 1020.230469 L 1083.921875 977.648438 L 1041.339844 977.648438 L 1041.339844 935.070312 L 998.761719 935.070312 L 998.761719 892.488281 L 956.179688 892.488281 L 956.179688 849.933594 L 913.597656 849.933594 L 913.597656 807.355469 L 871.046875 807.355469 L 871.046875 764.773438 L 828.464844 764.773438 L 828.464844 722.195312 L 785.886719 722.195312 L 785.886719 679.640625 L 871.046875 679.640625 L 871.046875 722.195312 L 913.597656 722.195312 L 913.597656 764.773438 L 956.179688 764.773438 L 956.179688 807.355469 L 998.761719 807.355469 L 998.761719 849.933594 L 1041.339844 849.933594 L 1041.339844 892.488281 Z M 998.761719 594.480469 L 956.179688 594.480469 L 956.179688 551.898438 L 998.761719 551.898438 Z M 913.601562 679.640625 L 871.046875 679.640625 L 871.046875 594.480469 L 956.179688 594.480469 L 956.179688 637.058594 L 913.601562 637.058594 Z M 913.601562 679.640625 " fill-opacity="1" fill-rule="nonzero"/></g></svg>