<svg xmlns="http://www.w3.org/2000/svg" xmlns:xlink="http://www.w3.org/1999/xlink" width="2380" zoomAndPan="magnify" viewBox="0 0 1784.88 1784.99993" height="2380" preserveAspectRatio="xMidYMid meet" version="1.0"><defs><clipPath id="df6443f152"><path d="M 178.476562 363 L 1606.378906 363 L 1606.378906 1421.78125 L 178.476562 1421.78125 Z M 178.476562 363 " clip-rule="nonzero"/></clipPath></defs><path fill="#f7f7f0" d="M 1579.71875 601.019531 L 1553.445312 681.835938 L 1534.882812 708.390625 L 1515.179688 839.175781 L 1500.617188 839.175781 L 1447.503906 998.234375 L 1421.230469 1039.640625 L 1394.675781 1157.003906 L 1368.402344 1236.675781 L 1341.847656 1316.632812 L 1289.019531 1383.453125 L 1251.894531 1395.449219 L 1236.1875 1368.890625 L 1209.632812 1342.621094 L 1183.359375 1368.890625 L 1103.976562 1395.449219 L 680.777344 1395.449219 L 601.390625 1368.890625 L 575.117188 1342.621094 L 548.5625 1368.890625 L 532.855469 1395.449219 L 495.734375 1383.453125 L 442.902344 1316.632812 L 416.347656 1236.675781 L 390.074219 1157.003906 L 363.519531 1039.640625 L 337.246094 998.234375 L 284.132812 839.175781 L 269.570312 839.175781 L 249.867188 708.390625 L 231.304688 681.835938 L 205.03125 601.019531 L 298.980469 601.019531 L 337.246094 575.605469 L 337.246094 574.75 L 338.105469 574.75 L 363.519531 548.191406 L 416.347656 548.191406 L 442.902344 521.921875 L 469.460938 495.078125 L 555.128906 495.078125 L 601.390625 415.976562 L 627.945312 375.714844 L 1156.804688 375.714844 L 1183.359375 415.976562 L 1229.621094 495.078125 L 1315.289062 495.078125 L 1341.847656 521.636719 L 1341.847656 521.921875 L 1368.402344 548.191406 L 1421.230469 548.191406 L 1446.644531 574.75 L 1447.503906 574.75 L 1447.503906 575.605469 L 1485.769531 601.019531 Z M 1579.71875 601.019531 " fill-opacity="1" fill-rule="nonzero"/><path fill="#c1c2d9" d="M 812.988281 840.035156 L 654.21875 840.035156 L 654.21875 787.207031 L 654.503906 787.207031 L 654.503906 628.433594 L 707.332031 628.433594 L 707.332031 787.207031 L 760.445312 787.207031 L 760.445312 628.433594 L 813.273438 628.433594 L 813.273438 840.035156 Z M 760.160156 681.261719 L 760.160156 628.433594 L 707.332031 628.433594 L 707.332031 681.261719 Z M 1077.703125 681.261719 L 1077.703125 628.433594 L 866.105469 628.433594 L 866.105469 681.261719 Z M 866.105469 786.347656 L 1130.53125 786.347656 L 1130.53125 733.519531 L 866.105469 733.519531 Z M 654.21875 1051.632812 L 1130.246094 1051.632812 L 1130.246094 998.804688 L 654.21875 998.804688 Z M 1130.246094 469.09375 L 654.21875 469.09375 L 654.21875 521.921875 L 1130.246094 521.921875 Z M 654.21875 1157.578125 L 1130.246094 1157.578125 L 1130.246094 1104.75 L 654.21875 1104.75 Z M 654.21875 1262.949219 L 1130.246094 1262.949219 L 1130.246094 1210.121094 L 654.21875 1210.121094 Z M 403.78125 545.335938 L 356.09375 545.335938 L 337.816406 574.75 L 442.902344 574.75 L 442.902344 521.921875 Z M 442.902344 521.921875 L 495.734375 521.921875 L 495.734375 574.75 L 442.902344 574.75 L 442.902344 627.578125 L 337.246094 627.578125 L 337.246094 575.605469 L 270.140625 596.738281 L 218.738281 607.589844 L 231.304688 682.121094 L 252.148438 760.933594 L 284.132812 839.175781 L 310.691406 901.429688 L 317.828125 986.242188 L 336.960938 998.519531 L 368.945312 1096.179688 C 368.945312 1096.179688 355.523438 1097.324219 389.789062 1157.003906 C 424.058594 1216.6875 424.058594 1216.6875 424.058594 1216.6875 L 416.347656 1294.074219 L 442.902344 1316.347656 L 485.167969 1395.164062 L 532.855469 1395.164062 L 548.5625 1368.605469 L 575.117188 1342.046875 L 575.117188 495.363281 L 462.324219 495.363281 Z M 1514.609375 596.738281 L 1447.503906 574.75 L 1447.503906 627.578125 L 1341.847656 627.578125 L 1341.847656 574.75 L 1447.503906 574.75 L 1428.65625 545.335938 L 1380.96875 545.335938 L 1341.847656 521.636719 L 1341.847656 574.464844 L 1289.015625 574.464844 L 1289.015625 521.636719 L 1341.847656 521.636719 L 1322.429688 495.363281 L 1209.632812 495.363281 L 1209.632812 1342.621094 L 1236.1875 1369.175781 L 1251.894531 1395.734375 L 1299.582031 1395.734375 L 1341.847656 1316.917969 L 1368.402344 1294.644531 L 1360.691406 1216.972656 C 1360.691406 1216.972656 1360.691406 1216.972656 1394.960938 1157.292969 C 1429.226562 1097.609375 1415.804688 1096.46875 1415.804688 1096.46875 L 1447.789062 998.804688 L 1466.921875 986.527344 L 1474.058594 901.714844 L 1500.617188 839.464844 L 1532.601562 761.21875 L 1553.445312 682.40625 L 1566.011719 607.875 Z M 1514.609375 596.738281 " fill-opacity="1" fill-rule="nonzero"/><g clip-path="url(#df6443f152)"><path fill="#2b2b2b" d="M 654.503906 415.976562 L 601.390625 415.976562 L 601.390625 363.148438 L 1183.359375 363.148438 L 1183.359375 415.976562 Z M 601.390625 1263.234375 L 601.390625 415.976562 L 548.5625 415.976562 L 548.5625 468.808594 L 442.902344 468.808594 L 442.902344 521.921875 L 548.5625 521.921875 L 548.5625 680.40625 L 442.902344 680.40625 L 442.902344 733.234375 L 548.5625 733.234375 L 548.5625 839.464844 L 442.902344 839.464844 L 442.902344 892.578125 L 548.5625 892.578125 L 548.5625 996.808594 L 495.734375 996.808594 L 495.734375 1049.921875 L 548.5625 1049.921875 L 548.5625 1368.890625 L 601.390625 1368.890625 Z M 442.902344 574.75 L 442.902344 521.921875 L 337.246094 521.921875 L 337.246094 574.75 Z M 284.132812 627.578125 L 337.246094 627.578125 L 337.246094 574.75 L 178.476562 574.75 L 178.476562 681.835938 L 231.304688 681.835938 L 231.304688 627.578125 Z M 495.734375 1316.0625 L 442.902344 1316.0625 L 442.902344 1157.003906 L 390.074219 1157.003906 L 390.074219 998.234375 L 337.246094 998.234375 L 337.246094 839.175781 L 284.132812 839.175781 L 284.132812 681.835938 L 231.304688 681.835938 L 231.304688 839.464844 L 284.132812 839.464844 L 284.132812 998.804688 L 337.246094 998.804688 L 337.246094 1157.863281 L 390.074219 1157.863281 L 390.074219 1316.632812 L 442.902344 1316.632812 L 442.902344 1421.71875 L 548.5625 1421.71875 L 548.5625 1368.890625 L 495.734375 1368.890625 C 495.734375 1368.890625 495.734375 1316.0625 495.734375 1316.0625 Z M 442.902344 787.207031 L 442.902344 734.378906 L 337.246094 734.378906 L 337.246094 787.207031 Z M 442.902344 893.433594 L 390.074219 893.433594 L 390.074219 946.261719 L 442.902344 946.261719 Z M 442.902344 1104.460938 L 495.734375 1104.460938 L 495.734375 1051.632812 L 442.902344 1051.632812 Z M 1236.1875 1263.234375 L 1236.1875 1049.921875 L 1289.019531 1049.921875 L 1289.019531 996.804688 L 1236.1875 996.804688 L 1236.1875 892.578125 L 1341.847656 892.578125 L 1341.847656 839.464844 L 1236.1875 839.464844 L 1236.1875 733.234375 L 1341.847656 733.234375 L 1341.847656 680.40625 L 1236.1875 680.40625 L 1236.1875 521.921875 L 1341.847656 521.921875 L 1341.847656 468.808594 L 1236.1875 468.808594 L 1236.1875 415.976562 L 1183.359375 415.976562 L 1183.359375 1368.890625 L 1236.1875 1368.890625 Z M 1553.445312 574.464844 L 1447.503906 574.464844 L 1447.503906 521.921875 L 1341.847656 521.921875 L 1341.847656 574.75 L 1447.503906 574.75 L 1447.503906 627.578125 L 1553.445312 627.578125 L 1553.445312 681.835938 L 1606.273438 681.835938 L 1606.273438 574.464844 Z M 1500.617188 733.804688 L 1500.617188 839.175781 L 1447.503906 839.175781 L 1447.503906 998.234375 L 1394.675781 998.234375 L 1394.675781 1157.003906 L 1341.847656 1157.003906 L 1341.847656 1316.0625 L 1289.019531 1316.0625 L 1289.019531 1368.890625 L 1236.1875 1368.890625 L 1236.1875 1421.71875 L 1341.847656 1421.71875 L 1341.847656 1316.632812 L 1394.675781 1316.632812 L 1394.675781 1157.863281 L 1447.503906 1157.863281 L 1447.503906 998.804688 L 1500.617188 998.804688 L 1500.617188 839.464844 L 1553.445312 839.464844 L 1553.445312 681.835938 L 1500.617188 681.835938 Z M 1341.847656 787.207031 L 1394.675781 787.207031 L 1394.675781 734.378906 L 1341.847656 734.378906 Z M 1341.847656 946.261719 L 1394.675781 946.261719 L 1394.675781 893.433594 L 1341.847656 893.433594 Z M 1289.019531 1104.460938 L 1341.847656 1104.460938 L 1341.847656 1051.632812 L 1289.019531 1051.632812 Z M 1077.417969 1368.890625 L 601.390625 1368.890625 L 601.390625 1421.71875 L 1183.359375 1421.71875 L 1183.359375 1368.890625 Z M 1077.417969 1368.890625 " fill-opacity="1" fill-rule="nonzero"/></g></svg>